<svg width="640" height="480" viewBox="0 0 640 480" fill="none" xmlns="http://www.w3.org/2000/svg">
<rect width="640" height="480" fill="url(#paint0_linear_2_2)"/>
<path d="M292.102 284.588V280.966C292.173 268.537 293.274 258.629 295.405 251.243C297.607 243.857 300.803 237.891 304.993 233.345C309.183 228.8 314.226 224.68 320.121 220.987C324.524 218.146 328.466 215.199 331.946 212.145C335.426 209.091 338.196 205.717 340.256 202.024C342.315 198.26 343.345 194.07 343.345 189.453C343.345 184.553 342.173 180.256 339.83 176.562C337.486 172.869 334.325 170.028 330.348 168.04C326.442 166.051 322.109 165.057 317.351 165.057C312.734 165.057 308.366 166.087 304.247 168.146C300.128 170.135 296.754 173.118 294.126 177.095C291.499 181.001 290.078 185.866 289.865 191.69H246.399C246.754 177.486 250.163 165.767 256.626 156.534C263.089 147.23 271.648 140.305 282.301 135.76C292.955 131.143 304.709 128.835 317.564 128.835C331.697 128.835 344.197 131.179 355.064 135.866C365.93 140.483 374.453 147.195 380.632 156.001C386.811 164.808 389.901 175.426 389.901 187.855C389.901 196.165 388.516 203.551 385.746 210.014C383.047 216.406 379.247 222.088 374.347 227.06C369.446 231.96 363.658 236.399 356.982 240.376C351.371 243.714 346.754 247.195 343.132 250.817C339.581 254.439 336.918 258.629 335.142 263.388C333.438 268.146 332.55 274.006 332.479 280.966V284.588H292.102ZM313.196 352.77C306.094 352.77 300.021 350.284 294.979 345.312C290.007 340.27 287.557 334.233 287.628 327.202C287.557 320.241 290.007 314.276 294.979 309.304C300.021 304.332 306.094 301.847 313.196 301.847C319.943 301.847 325.874 304.332 330.987 309.304C336.101 314.276 338.693 320.241 338.764 327.202C338.693 331.889 337.45 336.186 335.036 340.092C332.692 343.928 329.602 347.017 325.767 349.361C321.932 351.634 317.741 352.77 313.196 352.77Z" fill="white"/>
<defs>
<linearGradient id="paint0_linear_2_2" x1="320" y1="0" x2="320" y2="480" gradientUnits="userSpaceOnUse">
<stop stop-color="#1B64C3"/>
<stop offset="1" stop-color="#4A94E1"/>
</linearGradient>
</defs>
</svg>
